Coordinates
version=1
nRows=11
nColumns=40
inDegrees=yes

Units are S.I. units (second, meters, Newtons, ...)
Angles are in degrees.

endheader
time	pelvis_tilt	pelvis_list	pelvis_rotation	pelvis_tx	pelvis_ty	pelvis_tz	hip_flexion_r	hip_adduction_r	hip_rotation_r	knee_angle_r	knee_angle_r_beta	ankle_angle_r	subtalar_angle_r	mtp_angle_r	hip_flexion_l	hip_adduction_l	hip_rotation_l	knee_angle_l	knee_angle_l_beta	ankle_angle_l	subtalar_angle_l	mtp_angle_l	lumbar_extension	lumbar_bending	lumbar_rotation	arm_flex_r	arm_add_r	arm_rot_r	elbow_flex_r	pro_sup_r	wrist_flex_r	wrist_dev_r	arm_flex_l	arm_add_l	arm_rot_l	elbow_flex_l	pro_sup_l	wrist_flex_l	wrist_dev_l
      1.89000000	      5.38154265	     -4.40115282	     -3.64146252	      0.66945673	      0.89782289	      1.03135462	     -5.47173435	      5.56017070	    -14.96654865	    -19.33143817	     -0.33739725	     11.93554558	      4.15915998	     -4.53199546	     18.67182634	      7.32750767	     10.98892655	    -38.80912816	     -0.67734707	      4.94606548	      2.81496174	    -12.35588363	    -11.80665526	      4.39737442	      4.13676223	     12.97391526	    -12.62827754	     17.64357742	     20.90818436	     89.95437384	      0.00000000	      0.00000000	      1.02361045	      8.21161674	    -18.51870834	     15.84524320	     89.95437384	      0.00000000	      0.00000000
      1.90000000	      5.27996269	     -4.41206613	     -3.93788310	      0.67861006	      0.89670553	      1.03149190	     -6.00284190	      5.41680795	    -14.95897557	    -19.40924237	     -0.33875518	     12.33675817	      4.51628739	     -4.86140274	     19.19216364	      7.46641511	     11.97729002	    -36.19234461	     -0.63167558	      4.18880014	      2.52560114	    -12.15352415	    -11.72163903	      4.32378163	      4.38134107	     13.46005180	    -12.74106131	     17.69913200	     21.26228959	     89.95437384	      0.00000000	      0.00000000	      0.48485533	      8.25423352	    -18.13618590	     15.99599353	     89.95437384	      0.00000000	      0.00000000
      1.91000000	      5.17475665	     -4.52546650	     -4.17735621	      0.68786028	      0.89548213	      1.03151280	     -6.58953891	      5.40944215	    -14.94265609	    -19.41946150	     -0.33893354	     12.56405578	      4.98785721	     -5.20866273	     19.66041142	      7.70120754	     12.88803674	    -33.50776988	     -0.58482091	      3.04121351	      2.01076021	    -11.86341419	    -11.62769573	      4.38415187	      4.62609791	     13.84694466	    -12.91399200	     17.79987683	     21.72518578	     89.95437384	      0.00000000	      0.00000000	     -0.06825176	      8.25987840	    -17.53770892	     16.20196896	     89.95437384	      0.00000000	      0.00000000
      1.92000000	      4.72597831	     -4.83117939	     -4.36221596	      0.69671618	      0.89359082	      1.03156810	     -6.74337776	      5.66100255	    -14.89433053	    -19.47964441	     -0.33998393	     12.75731886	      5.16993808	     -5.31371368	     20.62394450	      8.09572572	     13.38484244	    -31.01107681	     -0.54124539	      2.01033859	      1.78706754	    -11.50023504	    -11.22101989	      4.67788383	      4.79605660	     14.25182203	    -13.03083213	     17.83717014	     22.11844385	     89.95437384	      0.00000000	      0.00000000	     -0.64328494	      8.31408345	    -17.28915316	     16.50474383	     89.95437384	      0.00000000	      0.00000000
      1.93000000	      4.84912815	     -4.78932666	     -4.67770601	      0.70623115	      0.89255633	      1.03145070	     -7.59350426	      5.36376872	    -14.95161432	    -19.50795935	     -0.34047812	     13.21591046	      5.87240757	     -5.82671011	     20.62071692	      8.30031738	     14.96704812	    -28.13593831	     -0.49106476	      0.10731294	      0.47428026	    -11.13046540	    -11.37441122	      4.54997696	      4.88169175	     14.74603372	    -13.09069251	     18.10909300	     22.51505495	     89.95437384	      0.00000000	      0.00000000	     -1.18497401	      8.26218104	    -16.43881350	     16.56753910	     89.95437384	      0.00000000	      0.00000000
      1.94000000	      4.26535430	     -5.21722654	     -4.70887531	      0.71513097	      0.89031874	      1.03124552	     -7.65508776	      5.78121584	    -14.93851629	    -19.48564616	     -0.34008868	     13.33616925	      6.13403785	     -5.93886947	     21.65983949	      8.77590324	     15.20816968	    -25.66268408	     -0.44789833	     -0.77359639	      0.05128685	    -10.85226664	    -10.82646120	      5.01231064	      4.97302917	     15.02237458	    -13.22154222	     18.06323036	     22.92149846	     89.95437384	      0.00000000	      0.00000000	     -1.69787781	      8.28524769	    -16.20248215	     16.88839327	     89.95437384	      0.00000000	      0.00000000
      1.95000000	      4.04164451	     -5.36648864	     -4.85037255	      0.72439643	      0.88856969	      1.03096289	     -8.08349175	      5.72302019	    -15.16239796	    -19.56270133	     -0.34143355	     13.58001968	      6.99820718	     -7.41664155	     22.08682403	      9.16926295	     16.46055818	    -23.07703127	     -0.40277018	     -2.17845452	     -2.28094049	    -10.52395594	    -10.63835743	      5.13865458	      4.94693915	     15.41201205	    -13.26102528	     18.22528766	     23.25519933	     89.95437384	      0.00000000	      0.00000000	     -2.14613739	      8.16969968	    -15.21390226	     16.86875355	     89.95437384	      0.00000000	      0.00000000
      1.96000000	      3.59537630	     -5.62125104	     -4.96549535	      0.73343501	      0.88642750	      1.03062811	     -8.25503625	      5.89695260	    -15.07159015	    -19.62810199	     -0.34257501	     13.83649502	      7.11590179	     -7.74459587	     22.73660905	      9.46870187	     16.93752007	    -20.51143314	     -0.35799204	     -2.78391021	     -3.18303012	    -10.42338106	    -10.24293035	      5.40187524	      4.97629699	     15.70235047	    -13.30622051	     18.15744954	     23.61408453	     89.95437384	      0.00000000	      0.00000000	     -2.57220404	      8.15661576	    -15.02332461	     16.98112000	     89.95437384	      0.00000000	      0.00000000
      1.97000000	      3.06158283	     -6.03079041	     -5.05370076	      0.74252877	      0.88408648	      1.03027909	     -8.38220435	      6.24322079	    -14.98499068	    -19.62449213	     -0.34251200	     13.96870673	      7.33556684	     -7.85724625	     23.58281742	      9.95273998	     17.25379900	    -18.35947231	     -0.32043324	     -2.66036272	     -3.77660725	    -10.42677438	     -9.75165459	      5.85215287	      4.95558107	     15.98630789	    -13.32102595	     18.11195503	     23.88464024	     89.95437384	      0.00000000	      0.00000000	     -2.97880206	      8.12940945	    -14.96633916	     17.02825460	     89.95437384	      0.00000000	      0.00000000
      1.98000000	      2.70592265	     -6.39640768	     -5.01312947	      0.75172509	      0.88191283	      1.02970781	     -8.72538328	      6.52900867	    -15.16648419	    -19.58435024	     -0.34181139	     14.22655447	      7.41301111	     -7.92778105	     24.43621476	     10.47031543	     17.90851377	    -16.82652891	     -0.29367833	     -2.47972346	     -3.95233715	    -10.41747150	     -9.45388017	      6.25770978	      4.74200021	     16.32415601	    -13.27678279	     18.07876874	     24.07801416	     89.95437384	      0.00000000	      0.00000000	     -3.24182956	      8.03623939	    -15.01678724	     16.79745908	     89.95437384	      0.00000000	      0.00000000
      1.99000000	      2.34486589	     -6.47454978	     -5.53095380	      0.76117481	      0.87996105	      1.02970950	     -8.87865819	      6.37657727	    -14.72214621	    -19.93818089	     -0.34798690	     14.33554520	      7.95998328	     -8.67083196	     24.70940348	     10.88404638	     19.42325871	    -14.58985734	     -0.25464105	     -3.77613313	     -6.71647741	    -10.92880416	     -9.17151667	      6.28285626	      5.21888427	     16.38519563	    -13.29977721	     17.74531764	     24.48212879	     89.95437384	      0.00000000	      0.00000000	     -3.47721046	      7.93326582	    -14.54806506	     16.70678747	     89.95437384	      0.00000000	      0.00000000
